<svg width="420" height="600" fill="none" xmlns="http://www.w3.org/2000/svg">
    <rect x="129" y="41" width="268" height="518" rx="19" fill="#121212" stroke="#393939" strokeWidth="2"/>
    <rect x="2.5" y="292.5" width="309" height="119" rx="7.5" fill="#121212" stroke="#fff"/>
    <path d="M30.456 337h7.168v-1.984h-4.8v-9.856h-2.368V337zm12.696.224c1.12 0 2.256-.384 3.136-.992l-.8-1.44c-.64.4-1.28.624-2.016.624-1.328 0-2.288-.768-2.48-2.24h5.52c.064-.208.112-.64.112-1.072 0-2.48-1.28-4.288-3.744-4.288-2.144 0-4.176 1.808-4.176 4.72 0 2.944 1.952 4.688 4.448 4.688zm-2.192-5.6c.176-1.312 1.008-1.984 1.952-1.984 1.152 0 1.696.768 1.696 1.984H40.96zM50.514 337h2.72l2.992-8.96H53.97l-1.312 4.464c-.24.88-.496 1.808-.72 2.72h-.08c-.24-.912-.496-1.84-.72-2.72l-1.312-4.464h-2.368l3.056 8.96zm10.966.224c1.12 0 2.256-.384 3.136-.992l-.8-1.44c-.64.4-1.28.624-2.016.624-1.328 0-2.288-.768-2.48-2.24h5.52c.064-.208.112-.64.112-1.072 0-2.48-1.28-4.288-3.744-4.288-2.144 0-4.176 1.808-4.176 4.72 0 2.944 1.952 4.688 4.448 4.688zm-2.192-5.6c.176-1.312 1.008-1.984 1.952-1.984 1.152 0 1.696.768 1.696 1.984h-3.648zM66.89 337h2.336v-5.344c.512-1.296 1.36-1.76 2.064-1.76.368 0 .624.048.928.144l.416-2.032c-.272-.112-.56-.192-1.056-.192-.928 0-1.888.64-2.544 1.808h-.064l-.16-1.584h-1.92V337zm8.677.224c1.024 0 1.92-.512 2.704-1.184h.048l.176.96h1.92v-5.232c0-2.592-1.168-3.952-3.44-3.952-1.408 0-2.688.528-3.744 1.184l.848 1.552c.832-.48 1.632-.848 2.464-.848 1.104 0 1.488.672 1.52 1.552-3.6.384-5.152 1.392-5.152 3.312 0 1.52 1.056 2.656 2.656 2.656zm.768-1.84c-.688 0-1.184-.304-1.184-1.008 0-.8.736-1.392 2.912-1.68v1.808c-.56.56-1.056.88-1.728.88zm9.629 5.504c2.992 0 4.864-1.376 4.864-3.184 0-1.568-1.168-2.24-3.328-2.24h-1.52c-1.056 0-1.408-.256-1.408-.736 0-.352.128-.56.384-.768.384.128.8.208 1.152.208 1.92 0 3.456-1.024 3.456-3.04 0-.56-.176-1.056-.416-1.36h1.536v-1.728H87.45a4.215 4.215 0 0 0-1.344-.224c-1.904 0-3.616 1.136-3.616 3.248 0 1.04.576 1.888 1.184 2.336v.064c-.528.384-.992 1.008-.992 1.68 0 .736.352 1.2.816 1.504v.08c-.816.464-1.28 1.104-1.28 1.856 0 1.584 1.632 2.304 3.744 2.304zm.144-8.176c-.784 0-1.408-.592-1.408-1.648s.608-1.648 1.408-1.648c.8 0 1.392.592 1.392 1.648s-.608 1.648-1.392 1.648zm.208 6.688c-1.312 0-2.144-.432-2.144-1.184 0-.368.192-.72.592-1.04.32.08.704.128 1.248.128h1.088c.96 0 1.488.16 1.488.8 0 .704-.928 1.296-2.272 1.296zm9.634-2.176c1.12 0 2.256-.384 3.136-.992l-.8-1.44c-.64.4-1.28.624-2.016.624-1.328 0-2.288-.768-2.48-2.24h5.52c.064-.208.112-.64.112-1.072 0-2.48-1.28-4.288-3.744-4.288-2.144 0-4.176 1.808-4.176 4.72 0 2.944 1.952 4.688 4.448 4.688zm-2.192-5.6c.176-1.312 1.008-1.984 1.952-1.984 1.152 0 1.696.768 1.696 1.984h-3.648z" fill="#fff"/>
    <path fill="#353535" d="M80 371h200v2H80z"/>
    <path fill-rule="evenodd" clip-rule="evenodd" d="M34 377a5.002 5.002 0 0 0 4.9-4h34.2a5.002 5.002 0 0 0 9.8 0h41.2a5.002 5.002 0 0 0 9.8 0h40.2a5.002 5.002 0 0 0 9.8 0h41.2a5.002 5.002 0 0 0 9.9-1 5 5 0 0 0-9.9-1h-41.2a5.002 5.002 0 0 0-9.8 0h-40.2a5.002 5.002 0 0 0-9.8 0H82.9a5.002 5.002 0 0 0-9.8 0H38.9a5 5 0 1 0-4.9 6z" fill="url(#a)"/>
    <circle cx="280" cy="372" r="5" fill="#353535"/>
    <path fill-rule="evenodd" clip-rule="evenodd" d="M204 317a2 2 0 0 0-2 2v26a2 2 0 0 0 2 2h19l6.5 10 6.5-10h18a2 2 0 0 0 2-2v-26a2 2 0 0 0-2-2h-50z" fill="#007DFF" fill-opacity=".2"/>
    <path d="M221.441 337.196c2.1 0 3.486-1.204 3.486-2.772 0-1.414-.784-2.254-1.736-2.772v-.07c.686-.49 1.33-1.344 1.33-2.366 0-1.652-1.176-2.758-3.01-2.758-1.806 0-3.122 1.064-3.122 2.73 0 1.106.574 1.89 1.372 2.464v.07c-.966.518-1.778 1.372-1.778 2.702 0 1.624 1.484 2.772 3.458 2.772zm.658-6.118c-1.092-.434-1.89-.91-1.89-1.89 0-.826.56-1.288 1.26-1.288.868 0 1.372.602 1.372 1.442 0 .616-.238 1.204-.742 1.736zm-.602 4.662c-.966 0-1.736-.602-1.736-1.54 0-.77.392-1.47.952-1.918 1.344.546 2.296.994 2.296 2.072 0 .896-.644 1.386-1.512 1.386zm8.202 1.456c2.1 0 3.5-1.848 3.5-5.418 0-3.57-1.4-5.334-3.5-5.334-2.114 0-3.514 1.75-3.514 5.334 0 3.57 1.4 5.418 3.514 5.418zm0-1.61c-.896 0-1.568-.896-1.568-3.808 0-2.898.672-3.738 1.568-3.738.882 0 1.554.84 1.554 3.738 0 2.912-.672 3.808-1.554 3.808zm4.338 1.414h2.128l.728-1.428c.224-.476.434-.938.658-1.386h.07c.252.448.504.924.756 1.386l.868 1.428h2.212l-2.45-3.85 2.296-3.99h-2.128l-.658 1.4c-.182.434-.392.882-.574 1.316h-.056a59.921 59.921 0 0 1-.7-1.316l-.784-1.4h-2.212l2.296 3.752-2.45 4.088z" fill="#007DFF"/>
    <circle cx="230" cy="372" r="10" fill="#007DFF" fill-opacity=".2"/>
    <path fill-rule="evenodd" clip-rule="evenodd" d="M152 57a8 8 0 0 0-8 8v224h240V65a8 8 0 0 0-8-8h-63v13a5 5 0 0 1-5 5h-89a5 5 0 0 1-5-5V57h-62z" fill="url(#b)"/>
    <path d="M181.058 173h4.224c2.608 0 4.592-1.104 4.592-3.488 0-1.6-.944-2.496-2.224-2.8v-.08c1.008-.352 1.616-1.472 1.616-2.56 0-2.208-1.856-2.912-4.288-2.912h-3.92V173zm2.368-7.024v-3.008h1.408c1.424 0 2.128.416 2.128 1.456 0 .944-.656 1.552-2.16 1.552h-1.376zm0 5.2v-3.44h1.648c1.632 0 2.496.48 2.496 1.632 0 1.232-.88 1.808-2.496 1.808h-1.648zM193.8 173h2.368v-9.872h3.36v-1.968h-9.056v1.968h3.328V173zm11.98.224c1.536 0 2.8-.608 3.776-1.744l-1.248-1.472c-.64.688-1.44 1.168-2.448 1.168-1.872 0-3.088-1.552-3.088-4.128 0-2.544 1.344-4.08 3.136-4.08.896 0 1.584.416 2.176.992l1.248-1.504c-.768-.8-1.968-1.52-3.472-1.52-2.992 0-5.504 2.288-5.504 6.192 0 3.952 2.432 6.096 5.424 6.096zm9.931 0c2.896 0 4.576-1.616 4.576-5.552v-6.512h-2.272v6.72c0 2.464-.896 3.296-2.304 3.296-1.392 0-2.24-.832-2.24-3.296v-6.72h-2.368v6.512c0 3.936 1.728 5.552 4.608 5.552zm10.773 0c2.736 0 4.352-1.648 4.352-3.584 0-1.712-.944-2.624-2.384-3.216l-1.552-.656c-1.008-.4-1.856-.704-1.856-1.552 0-.784.672-1.248 1.712-1.248.976 0 1.76.352 2.512.976l1.2-1.488c-.96-.976-2.336-1.52-3.712-1.52-2.4 0-4.096 1.488-4.096 3.424 0 1.728 1.2 2.688 2.4 3.184l1.584.672c1.056.448 1.776.72 1.776 1.6 0 .832-.656 1.36-1.888 1.36-1.04 0-2.16-.528-3.008-1.312l-1.36 1.632a6.31 6.31 0 0 0 4.32 1.728zm6.449-.224h3.376c3.488 0 5.728-1.984 5.728-5.968 0-4-2.24-5.872-5.856-5.872h-3.248V173zm2.368-1.904v-8.048h.736c2.208 0 3.584 1.088 3.584 3.984 0 2.88-1.376 4.064-3.584 4.064h-.736zM246.206 173h2.368v-9.872h3.36v-1.968h-9.056v1.968h3.328V173z" fill="#fff"/>
    <path d="M155 160.5h15M161 167h9M155 174h15" stroke="#fff" stroke-linecap="square"/>
    <path fill-rule="evenodd" clip-rule="evenodd" d="m157.5 167-3 2v-4l3 2zM155 215h69l-13 30h-56v-30z" fill="#fff"/>
    <path fill-rule="evenodd" clip-rule="evenodd" d="M285 245h-69l13-30h56v30z" fill="#353535"/>
    <path d="M171.537 234h5.376v-1.488h-3.6v-7.392h-1.776V234zm9.414.168c1.68 0 3.228-1.296 3.228-3.516 0-2.244-1.548-3.54-3.228-3.54-1.68 0-3.228 1.296-3.228 3.54 0 2.22 1.548 3.516 3.228 3.516zm0-1.44c-.912 0-1.428-.816-1.428-2.076 0-1.272.516-2.1 1.428-2.1.912 0 1.428.828 1.428 2.1 0 1.26-.516 2.076-1.428 2.076zm4.704 1.272h1.752v-4.62c.504-.492.852-.756 1.404-.756.66 0 .948.372.948 1.404V234h1.764v-4.188c0-1.692-.624-2.7-2.076-2.7-.912 0-1.596.48-2.184 1.056h-.048l-.12-.888h-1.44V234zm10.052 2.916c2.244 0 3.648-1.032 3.648-2.388 0-1.176-.876-1.68-2.496-1.68h-1.14c-.792 0-1.056-.192-1.056-.552 0-.264.096-.42.288-.576.288.096.6.156.864.156 1.44 0 2.592-.768 2.592-2.28 0-.42-.132-.792-.312-1.02h1.152v-1.296h-2.424a3.161 3.161 0 0 0-1.008-.168c-1.428 0-2.712.852-2.712 2.436 0 .78.432 1.416.888 1.752v.048c-.396.288-.744.756-.744 1.26 0 .552.264.9.612 1.128v.06c-.612.348-.96.828-.96 1.392 0 1.188 1.224 1.728 2.808 1.728zm.108-6.132c-.588 0-1.056-.444-1.056-1.236s.456-1.236 1.056-1.236c.6 0 1.044.444 1.044 1.236s-.456 1.236-1.044 1.236zm.156 5.016c-.984 0-1.608-.324-1.608-.888 0-.276.144-.54.444-.78.24.06.528.096.936.096h.816c.72 0 1.116.12 1.116.6 0 .528-.696.972-1.704.972zM241.773 234.168c2.052 0 3.264-1.236 3.264-2.688 0-1.284-.708-1.968-1.788-2.412l-1.164-.492c-.756-.3-1.392-.528-1.392-1.164 0-.588.504-.936 1.284-.936.732 0 1.32.264 1.884.732l.9-1.116c-.72-.732-1.752-1.14-2.784-1.14-1.8 0-3.072 1.116-3.072 2.568 0 1.296.9 2.016 1.8 2.388l1.188.504c.792.336 1.332.54 1.332 1.2 0 .624-.492 1.02-1.416 1.02-.78 0-1.62-.396-2.256-.984l-1.02 1.224a4.732 4.732 0 0 0 3.24 1.296zm4.693-.168h1.752v-4.62c.504-.492.852-.756 1.404-.756.66 0 .948.372.948 1.404V234h1.764v-4.188c0-1.692-.624-2.7-2.076-2.7-.912 0-1.572.48-2.112.984l.072-1.26v-2.412h-1.752V234zm10.483.168c1.68 0 3.228-1.296 3.228-3.516 0-2.244-1.548-3.54-3.228-3.54-1.68 0-3.228 1.296-3.228 3.54 0 2.22 1.548 3.516 3.228 3.516zm0-1.44c-.912 0-1.428-.816-1.428-2.076 0-1.272.516-2.1 1.428-2.1.912 0 1.428.828 1.428 2.1 0 1.26-.516 2.076-1.428 2.076zm4.704 1.272h1.752v-4.008c.384-.972 1.02-1.32 1.548-1.32.276 0 .468.036.696.108l.312-1.524a1.901 1.901 0 0 0-.792-.144c-.696 0-1.416.48-1.908 1.356h-.048l-.12-1.188h-1.44V234zm7.687.168c.588 0 1.056-.132 1.416-.252l-.288-1.284c-.18.072-.444.144-.66.144-.6 0-.912-.36-.912-1.128v-2.976h1.656v-1.392h-1.656v-1.8h-1.476l-.204 1.8-1.032.084v1.308h.948v2.976c0 1.512.612 2.52 2.208 2.52z" fill="#121212"/>
    <g opacity=".4">
        <path fill="#02CC99" d="M347 386h24v20h-24zM328 409h43v20h-43zM359 363h12v20h-12zM324 432h47v20h-47zM311 478h60v20h-60zM317 455h54v20h-54z"/>
        <path fill="#FF2500" d="M302 215h69v20h-69zM328 261h43v20h-43zM347 330h24v20h-24zM312 238h59v20h-59zM336 284h35v20h-35zM324 307h47v20h-47z"/>
    </g>
    <path d="M235.521 119h1.856v-5.072h4.352v-1.552h-4.352v-3.6h5.12v-1.552h-6.976V119zm11.181.208c1.216 0 2.08-.608 2.88-1.536h.048l.144 1.328h1.504v-8.8h-1.84v6.112c-.736.928-1.296 1.312-2.112 1.312-1.04 0-1.472-.592-1.472-2.112V110.2h-1.84v5.536c0 2.24.816 3.472 2.688 3.472zm10.306 0c.64 0 1.232-.16 1.728-.32l-.336-1.36c-.256.112-.64.208-.944.208-.912 0-1.28-.544-1.28-1.6v-4.464h2.288V110.2h-2.288v-2.432h-1.552l-.208 2.432-1.36.096v1.376h1.28v4.448c0 1.856.688 3.088 2.672 3.088zm5.96 0c1.216 0 2.08-.608 2.88-1.536h.048l.144 1.328h1.504v-8.8h-1.84v6.112c-.736.928-1.296 1.312-2.112 1.312-1.04 0-1.472-.592-1.472-2.112V110.2h-1.84v5.536c0 2.24.816 3.472 2.688 3.472zm7.346-.208h1.824v-5.488c.56-1.392 1.424-1.888 2.144-1.888.352 0 .576.048.88.144l.336-1.6c-.272-.128-.56-.192-.992-.192-.944 0-1.872.672-2.496 1.808h-.048l-.144-1.584h-1.504v8.8zm10.039.208c1.152 0 2.16-.384 2.976-.928l-.64-1.168c-.64.416-1.312.656-2.096.656-1.52 0-2.576-1.008-2.72-2.688h5.712c.048-.208.08-.576.08-.928 0-2.496-1.248-4.176-3.584-4.176-2.064 0-4.016 1.776-4.016 4.64 0 2.896 1.904 4.592 4.288 4.592zm-2.496-5.392c.176-1.552 1.152-2.4 2.256-2.4 1.28 0 1.968.88 1.968 2.4h-4.224zm10.263 5.392c2.176 0 3.344-1.2 3.344-2.672 0-1.664-1.36-2.208-2.592-2.672-.96-.352-1.872-.64-1.872-1.392 0-.608.448-1.088 1.408-1.088.736 0 1.36.32 1.968.768l.864-1.136c-.72-.56-1.68-1.04-2.864-1.04-1.936 0-3.12 1.104-3.12 2.576 0 1.488 1.344 2.112 2.512 2.56.96.368 1.952.72 1.952 1.52 0 .672-.496 1.184-1.552 1.184-.944 0-1.712-.384-2.496-1.008l-.864 1.184c.848.704 2.096 1.216 3.312 1.216z" fill="#fff"/>
    <path d="M185.719 119.182c2.254 0 3.626-1.344 3.626-2.996 0-1.512-.882-2.268-2.1-2.786l-1.414-.602c-.84-.336-1.666-.672-1.666-1.554 0-.826.686-1.33 1.736-1.33.91 0 1.624.35 2.268.924l.854-1.036a4.414 4.414 0 0 0-3.122-1.302c-1.96 0-3.388 1.218-3.388 2.842 0 1.498 1.106 2.282 2.1 2.702l1.428.616c.952.42 1.652.714 1.652 1.652 0 .868-.7 1.456-1.946 1.456-.994 0-2.002-.476-2.744-1.218l-.952 1.12a5.14 5.14 0 0 0 3.668 1.512zm5.437 2.94h1.596v-2.492l-.042-1.316c.658.56 1.344.868 2.03.868 1.736 0 3.318-1.512 3.318-4.158 0-2.366-1.092-3.92-3.052-3.92-.854 0-1.694.476-2.366 1.036h-.042l-.126-.84h-1.316v10.822zm3.276-4.27c-.476 0-1.078-.182-1.68-.7v-3.766c.658-.63 1.232-.938 1.834-.938 1.288 0 1.806.994 1.806 2.604 0 1.806-.84 2.8-1.96 2.8zm8.623 1.33c1.904 0 3.626-1.47 3.626-4.018 0-2.576-1.722-4.06-3.626-4.06s-3.626 1.484-3.626 4.06c0 2.548 1.722 4.018 3.626 4.018zm0-1.316c-1.204 0-1.96-1.078-1.96-2.702 0-1.638.756-2.73 1.96-2.73 1.218 0 1.974 1.092 1.974 2.73 0 1.624-.756 2.702-1.974 2.702zm7.781 1.316c.56 0 1.078-.14 1.512-.28l-.294-1.19c-.224.098-.56.182-.826.182-.798 0-1.12-.476-1.12-1.4v-3.906h2.002V111.3h-2.002v-2.128h-1.358l-.182 2.128-1.19.084v1.204h1.12v3.892c0 1.624.602 2.702 2.338 2.702zM314.698 119h1.624v-4.438h3.808v-1.358h-3.808v-3.15h4.48v-1.358h-6.104V119zm7.79 0h1.596v-7.7h-1.596v7.7zm.798-9.142c.588 0 1.036-.392 1.036-.952 0-.574-.448-.952-1.036-.952-.588 0-1.022.378-1.022.952 0 .56.434.952 1.022.952zm5.041 9.324c.924 0 1.75-.462 2.45-1.064h.042l.14.882h1.316v-4.634c0-2.044-.882-3.262-2.8-3.262-1.232 0-2.31.504-3.108 1.008l.602 1.092c.658-.42 1.414-.784 2.226-.784 1.134 0 1.456.784 1.47 1.68-3.206.35-4.606 1.204-4.606 2.856 0 1.358.938 2.226 2.268 2.226zm.49-1.274c-.686 0-1.204-.308-1.204-1.064 0-.868.77-1.442 3.052-1.722v1.89c-.63.574-1.176.896-1.848.896zm8.1 1.274c.56 0 1.078-.14 1.512-.28l-.294-1.19c-.224.098-.56.182-.826.182-.798 0-1.12-.476-1.12-1.4v-3.906h2.002V111.3h-2.002v-2.128h-1.358l-.182 2.128-1.19.084v1.204h1.12v3.892c0 1.624.602 2.702 2.338 2.702z" fill="#fff" fill-opacity=".5"/>
    <path fill="#007DFF" d="M154 463h130v35H154z"/>
    <path d="M191.897 484.168c2.352 0 3.972-1.764 3.972-4.644s-1.62-4.572-3.972-4.572-3.972 1.68-3.972 4.572c0 2.88 1.62 4.644 3.972 4.644zm0-1.536c-1.32 0-2.16-1.212-2.16-3.108 0-1.908.84-3.048 2.16-3.048 1.32 0 2.16 1.14 2.16 3.048 0 1.896-.84 3.108-2.16 3.108zm5.563 3.948h1.752v-2.04l-.048-1.104c.516.468 1.08.732 1.668.732 1.476 0 2.856-1.332 2.856-3.636 0-2.064-.984-3.42-2.64-3.42-.72 0-1.416.384-1.98.864h-.048l-.12-.696h-1.44v9.3zm2.976-3.864c-.36 0-.792-.132-1.224-.504v-2.952c.468-.468.876-.696 1.332-.696.924 0 1.332.708 1.332 1.992 0 1.464-.624 2.16-1.44 2.16zm7.662 1.452c.84 0 1.692-.288 2.352-.744l-.6-1.08c-.48.3-.96.468-1.512.468-.996 0-1.716-.576-1.86-1.68h4.14c.048-.156.084-.48.084-.804 0-1.86-.96-3.216-2.808-3.216-1.608 0-3.132 1.356-3.132 3.54 0 2.208 1.464 3.516 3.336 3.516zm-1.644-4.2c.132-.984.756-1.488 1.464-1.488.864 0 1.272.576 1.272 1.488h-2.736zm5.701 4.032h1.752v-4.62c.504-.492.852-.756 1.404-.756.66 0 .948.372.948 1.404V484h1.764v-4.188c0-1.692-.624-2.7-2.076-2.7-.912 0-1.596.48-2.184 1.056h-.048l-.12-.888h-1.44V484zm10.55 0h5.376v-1.488h-3.6v-7.392h-1.776V484zm9.414.168c1.68 0 3.228-1.296 3.228-3.516 0-2.244-1.548-3.54-3.228-3.54-1.68 0-3.228 1.296-3.228 3.54 0 2.22 1.548 3.516 3.228 3.516zm0-1.44c-.912 0-1.428-.816-1.428-2.076 0-1.272.516-2.1 1.428-2.1.912 0 1.428.828 1.428 2.1 0 1.26-.516 2.076-1.428 2.076zm4.704 1.272h1.752v-4.62c.504-.492.852-.756 1.404-.756.66 0 .948.372.948 1.404V484h1.764v-4.188c0-1.692-.624-2.7-2.076-2.7-.912 0-1.596.48-2.184 1.056h-.048l-.12-.888h-1.44V484zm10.052 2.916c2.244 0 3.648-1.032 3.648-2.388 0-1.176-.876-1.68-2.496-1.68h-1.14c-.792 0-1.056-.192-1.056-.552 0-.264.096-.42.288-.576.288.096.6.156.864.156 1.44 0 2.592-.768 2.592-2.28 0-.42-.132-.792-.312-1.02h1.152v-1.296h-2.424a3.161 3.161 0 0 0-1.008-.168c-1.428 0-2.712.852-2.712 2.436 0 .78.432 1.416.888 1.752v.048c-.396.288-.744.756-.744 1.26 0 .552.264.9.612 1.128v.06c-.612.348-.96.828-.96 1.392 0 1.188 1.224 1.728 2.808 1.728zm.108-6.132c-.588 0-1.056-.444-1.056-1.236s.456-1.236 1.056-1.236c.6 0 1.044.444 1.044 1.236s-.456 1.236-1.044 1.236zm.156 5.016c-.984 0-1.608-.324-1.608-.888 0-.276.144-.54.444-.78.24.06.528.096.936.096h.816c.72 0 1.116.12 1.116.6 0 .528-.696.972-1.704.972z" fill="#fff"/>
    <path stroke="#fff" d="M344.5 162.5h3v8h-3zM346 159.5v3M346 171v3M336.5 163.5h3v6h-3zM338 160.5v3M338 170v3"/>
    <path fill="#fff" d="M360 166h2.148v2.148H360zM364.426 166h2.148v2.148h-2.148zM368.852 166H371v2.148h-2.148z"/>
    <defs>
        <linearGradient id="a" x1="-74" y1="372" x2="-73.031" y2="391.953" gradientUnits="userSpaceOnUse">
            <stop stop-color="#0430AB"/>
            <stop offset="1" stop-color="#007DFF"/>
        </linearGradient>
        <linearGradient id="b" x1="144" y1="57" x2="144" y2="289" gradientUnits="userSpaceOnUse">
            <stop stop-color="#1B1B1B"/>
            <stop offset="1" stop-color="#121212" stop-opacity=".01"/>
        </linearGradient>
    </defs>
</svg>
